<svg xmlns="http://www.w3.org/2000/svg" xmlns:xlink="http://www.w3.org/1999/xlink" width="306.132" height="319.634" viewBox="0 0 306.132 319.634">
  <defs>
    <clipPath id="clip-path">
      <rect id="Rectangle_177" data-name="Rectangle 177" width="85" height="265.796" fill="none"/>
    </clipPath>
    <clipPath id="clip-path-2">
      <rect id="Rectangle_188" data-name="Rectangle 188" width="260.098" height="243.847" fill="none"/>
    </clipPath>
  </defs>
  <g id="Group_169" data-name="Group 169" transform="translate(-13.5 -5.635)">
    <g id="Group_152" data-name="Group 152" transform="translate(13.5 5.635)">
      <g id="Group_134" data-name="Group 134" clip-path="url(#clip-path)">
        <path id="Path_78" data-name="Path 78" d="M84.944,94.421c-1.562-11.2-7.733-18.177-10.7-26.976-1.923-5.713-1.974-10.8-5.217-14.527-4.37-5.025-15.333-5.468-17.738-11.758.28-6.581,3.226-6.844,4.435-11.414.849-3.209-.546-4.886-.521-8.3q.389-5.015.782-10.028C54.731,5.528,47.852-.124,41.9,0c-6.249,4.117-7.975,11.305-7.565,22.135q-.26,3.111-.523,6.224c.864,5.185,3.836,7.5,2.087,14.525C28.889,46.22,20.46,48.2,16.08,54.994c-3.5,5.425-5.669,13.9-8.609,19.712C5.316,78.967-1.114,86.985.168,93.728c1.3,6.831,9.046,25.226,12.521,29.052,2.066,2.274,6.776,2.678,8.086,5.88,1.721,6.773-3.191,13.963-2.608,20.059,1.087,11.369.879,27.929,2.346,40.12.67,5.559-1.473,11.978-1.043,17.292.706,8.7-1.181,26.475,2.348,31.473q-.521,2.075-1.043,4.15c1.734.67,2.7.749,3.653,2.42,1.589,9.659-2.062,14.874-6.783,18.331v1.037c.088.23.174.46.261.69a15.274,15.274,0,0,0,9.912,1.039c.422-2.78,2.421-4.216,3.912-5.534-.166-8.025-2.028-14.892.261-20.061-1.772-14.042.591-43.721,3.912-59.139q2.61-12.276,5.217-24.556c.261-.233.523-.463.784-.693,1.694,2.855,1.545,8.149,2.346,12.1,2.648,13.058,3.926,28.205,5.74,42.887,1.206,9.763-.343,20.223,1.826,27.669l-1.826,2.42,1.826,3.8c.811,4.823-1.614,12.671-1.043,17.638,2.932,2.5,6.547,5.124,11.216,3.46a5.974,5.974,0,0,0,.782-3.46c-11.642-9.725.019-16.581-1.3-25.939-1.186-8.387,3.157-18.172,1.564-28.706-.649-4.289-2.222-12.282-1.043-18.675q1.044-3.285,2.087-6.571V168.434c1.511-12.706-.05-26.708-.782-37.353,11.085-3.731,15.068-15.506,19.564-28.359.614-1.76,2.491-5.4,2.087-8.3m-63.388,21.1H19.47c-4.572-3.424-6.238-14.386-8.347-21.1,2.295-4.469,5.444-8.538,7.565-13.144,2.613,2.552,3.855,26.761,3.912,33.549l-1.043.69m41.476,4.5c-1.085-.688-1.789-.979-2.348-2.42-.664-2.835,4.1-31.035,4.956-34.586,10.869,6.672,5.757,31.389-2.608,37.007" transform="translate(0 0)" fill="#040504" fill-rule="evenodd"/>
      </g>
    </g>
    <g id="Group_160" data-name="Group 160" transform="translate(-15.466)">
      <rect id="Rectangle_183" data-name="Rectangle 183" width="37" height="5" rx="2.5" transform="matrix(0.985, -0.174, 0.174, 0.985, 258.934, 105.243)"/>
      <ellipse id="Ellipse_70" data-name="Ellipse 70" cx="15" cy="23.5" rx="15" ry="23.5" transform="translate(260 81)" fill="#4b4747"/>
      <ellipse id="Ellipse_74" data-name="Ellipse 74" cx="15" cy="23.5" rx="15" ry="23.5" transform="translate(256 81)" fill="#838383"/>
      <g id="Group_159" data-name="Group 159" transform="translate(75 81.422)">
        <g id="Group_157" data-name="Group 157" clip-path="url(#clip-path-2)">
          <path id="Path_89" data-name="Path 89" d="M175.377,184.282c-3.111,9.193-6.491,17.639-3.5,27.313,1.938,6.269,3.792,12.635,5.222,19.035.807,3.614-.126,7.7-.768,11.49-.135.8-2.481,1.826-3.719,1.719a54.476,54.476,0,0,1-10.557-1.9c-1.157-.338-2.2-2.094-2.711-3.426a17.2,17.2,0,0,1,.071-12.437,5.776,5.776,0,0,0,.267-1.566c.351-5.117,1.278-10.28.893-15.344-.64-8.428-2.118-16.793-3.258-25.182-.4-2.925-.694-5.876-1.327-8.751a5.676,5.676,0,0,0-2.005-3.436c-9.722-5.862-19.455-11.722-29.411-17.168a11.206,11.206,0,0,0-8.892-1.093c-8.773,2.827-17.612,5.445-25.939,8-.512,1.2-.627,2.376-1.237,2.756-4.6,2.862-8.128.547-11.413-2.605.488-2.83,2.324-3.985,4.979-4.668,4.717-1.214,9.333-2.816,14.014-4.181,1.669-.486,2.3-1.308,2.226-3.16q-.518-12.885-.7-25.782c-.029-1.978-.969-2.459-2.56-3.284a82.036,82.036,0,0,1-10.883-6.88c-.74-.546-.307-2.565-.586-3.868-.909-4.246-1.857-8.484-2.883-12.7a29.416,29.416,0,0,0-1.372-3.53C78.6,91.765,78.341,89.5,77.1,88.1,71.437,81.7,70.931,73.79,69.589,65.947c-1-5.847-2.515-11.884-8.159-15.451a5.184,5.184,0,0,0-2.992-.9c-2.52.248-5.008.822-7.833,1.323a32.981,32.981,0,0,1,.35,5.444c-.586,5.861-1.027,11.771-2.173,17.534-1.238,6.227-11.132,8.562-16.235,2.919C27.255,70.967,24.07,64.257,21.592,56.8c-5.873,1.054-11.614,1.983-17.305,3.151-2.535.52-3.693-.1-4.156-2.743-.469-2.675.283-3.858,3.012-4.253C8.8,52.136,14.416,51.079,20.177,50.1c.152-3.136.424-6.17.419-9.2-.009-5.26,2.119-9.856,3.987-14.605,2.165-5.5,11.483-6.3,14.9-2.533,4.8,5.3,7.265,11.626,9.221,18.279.323,1.1.586,2.214.91,3.444,3.844-.542,7.388-.445,10.361-3.815,1.63-1.847,5.165-2,7.828-2.953,1.427-.511,2.828-1.1,4.241-1.65.025-.393,3.841,1.592,5.822,2.819a3.886,3.886,0,0,0,2.491.443c24.253-4.135,48.472-8.482,72.765-12.364,4.916-.785,7.962-3.587,10.9-6.278l8.1,1.228c.8-10.752,2.029-21.393,16.043-22.834,7.789-.8,13.791,4.867,18.9,17.652a11.058,11.058,0,0,1,1.408,6.552c-.675,3.537-1.13,8.1-2.473,12.388a14.087,14.087,0,0,1-10.307,9.889c-6.961,1.854-12.3-.568-16.557-5.9-1.705-2.134-3.027-4.573-4.8-7.3-.621,6.941-1.594,13.589-1.7,20.251-.1,6.2-3.212,11.352-4.743,17.035-.812,3.015-2.091,5.911-2.813,8.942-1.065,4.473-1.821,9.02-2.843,14.214a22.469,22.469,0,0,0,3.015,1.584c1.574.61,3.393.7,4.847,1.488a18.783,18.783,0,0,0,10.676,2.054c1.445-.1,3.7.754,4.33,1.878,1.29,2.288,2.951,2.451,5.168,2.572a59.587,59.587,0,0,1,31.969,11.617c2.99,2.142,6.739,3.248,9.657,5.464a102.767,102.767,0,0,1,11.479,10.354,6.915,6.915,0,0,1,1.648,5.157c-1.392,8.877-2.677,17.82-4.947,26.492-1.756,6.712-3.318,13.347-3.505,20.279-.045,1.683-.007,3.369.679,4.321q2.3.983,4.593,1.969a18.459,18.459,0,0,1,1.7.754c4.678,2.6,9.358,5.2,14,7.862a3.163,3.163,0,0,1,1.52,1.573,21.076,21.076,0,0,1,1.012,6.6c-.049.59-2.9,1.421-4.415,1.316a34.891,34.891,0,0,1-9.613-1.635c-4.955-1.833-9.842-3.315-15.179-2.576a7.57,7.57,0,0,1-.955.016c-6.186.059-6.873-.5-7.867-3.836s-2.073-6.367.159-9.666a14.547,14.547,0,0,0,2.543-9.824c-.484-4.918-.723-9.859-1.094-15.2-4.762,1.82-8.952,3.294-13,5.088-.72.319-1.293,2.017-1.185,3,1.223,11.179,2.587,22.344,3.922,33.511.5,4.214,1.241,8.413,1.47,12.641a5.435,5.435,0,0,0,3.63,5.308,9.079,9.079,0,0,1,2.721,1.615,2.317,2.317,0,0,1,.633,2.021c-.833,1.62-6.713,2.768-8.272,1.775-3.31-2.108-6.7-4.107-9.881-6.393a5.759,5.759,0,0,1-2.215-3.411c-.925-6.4-1.531-12.853-2.375-19.269a4.323,4.323,0,0,0-1.427-2.884c-7.239-4.39-14.576-8.616-22.29-13.126M166.143,37.747c-2.476-1.668-4.62-2.52-5.847-4.088-1.548-1.978-3.139-1.985-5.2-1.61q-36.294,6.6-72.6,13.135c-3.787.683-7.491,6.525-5.973,10.085a46.223,46.223,0,0,0,5.1,9.033c3.282,4.506,8.018,8.027,9.393,13.793.627,2.63,1.8,4.576,4.7,5.324a11,11,0,0,1,8.241-5.812s8.049.644,8.871,3.8c.711,2.73,5.419,2.556,8.2,1.447.554-.221,1.274.018,1.9-.085q4.359-.716,8.706-1.51c4.012-.727,8.027-1.443,12.023-2.25.8-.162,1.933-.517,2.215-1.114,3.217-6.785,9.4-12.112,9.988-20.2a5.793,5.793,0,0,1,.879-2.031c3.074-5.867,6.162-11.727,9.414-17.912m-59.782,88.19a33.982,33.982,0,0,1-.018,3.557c-.41,3.451.976,5.417,4.154,7.119,12.428,6.658,24.657,13.689,36.972,20.559,4.12,2.3,8.278,4.53,12.453,6.811,1.2-3.013-2.01-10.17-5.072-11.836q-12.434-6.768-24.9-13.477c-7.713-4.168-15.43-8.329-23.589-12.733m72.053,39.215c-3.281,4.387-2.66,7.692,2,10.332,1.379.781,2.755,1.565,4.14,2.335,4.1,2.28,8.2,4.553,12.878,7.149-.508-4.569-.933-8.385-1.229-11.037l-17.792-8.779m12.11-31.271-.232,1.361,31.244,15.09,4.3-9.611a71.58,71.58,0,0,1-24.838-4.872c-3.266-1.244-6.967-1.346-10.47-1.968M106.8,149.529l5.772-2.117-5.772-3.23Z" transform="translate(0 0)"/>
        </g>
      </g>
      <ellipse id="Ellipse_73" data-name="Ellipse 73" cx="15.5" cy="29" rx="15.5" ry="29" transform="matrix(0.985, -0.174, 0.174, 0.985, 83.863, 106.358)" fill="#4b4747"/>
      <ellipse id="Ellipse_75" data-name="Ellipse 75" cx="17.5" cy="29.5" rx="17.5" ry="29.5" transform="matrix(0.985, -0.174, 0.174, 0.985, 75, 107.921)" fill="#838383"/>
      <rect id="Rectangle_189" data-name="Rectangle 189" width="29" height="7.897" rx="3.948" transform="translate(71.466 134.26) rotate(-8)"/>
    </g>
  </g>
</svg>
