<svg xmlns="http://www.w3.org/2000/svg" width="15" height="27.205" viewBox="0 0 15 27.205">
  <g id="Group_57" data-name="Group 57" transform="translate(-307.225 -197.638)">
    <g id="Group_56" data-name="Group 56" transform="translate(307.225 197.638)">
      <path id="Path_76" data-name="Path 76" d="M731.47,116.509a4.518,4.518,0,0,1-.541-.166,1.884,1.884,0,0,1-1.243-1.793c-.016-1.409,0-2.818,0-4.228,0-4.64,0-14.274,0-18.914a2.017,2.017,0,0,1,2.215-2.1h10.567a2.015,2.015,0,0,1,2.214,2.1c0,5.985,0,16.963,0,22.948a1.983,1.983,0,0,1-1.749,2.132.18.18,0,0,0-.039.022Zm-.413-16.116c0,3.014,0,11.021,0,14.036,0,.535.259.779.827.779h10.59c.568,0,.827-.245.827-.779V91.394c0-.55-.255-.789-.839-.789H731.9c-.584,0-.838.239-.838.789Z" transform="translate(-729.677 -89.303)"/>
      <path id="Rectangle_49" data-name="Rectangle 49" d="M0,0H8.038a0,0,0,0,1,0,0V0A1.855,1.855,0,0,1,6.183,1.855H1.855A1.855,1.855,0,0,1,0,0V0A0,0,0,0,1,0,0Z" transform="translate(3.686 0.982)"/>
    </g>
  </g>
</svg>
