<svg xmlns="http://www.w3.org/2000/svg" width="94.279" height="48.024" viewBox="0 0 94.279 48.024">
  <g id="Group_26" data-name="Group 26" transform="translate(-250.498 -22.662)">
    <path id="Path_41" data-name="Path 41" d="M274.474,46.849l-11.22,5.137-1.152.528-11.6,5.313V70.686h12.756V52.514h11.22V70.686H287.23V41.009Z" fill="#4ebc88"/>
    <path id="Path_42" data-name="Path 42" d="M274.474,22.662v17.1h-11.22v-17.1H250.5v28.6l12.756-5.841,11.22-5.137,1.152-.528,11.6-5.313V22.662Z" fill="#4ebc88"/>
    <path id="Path_43" data-name="Path 43" d="M305.606,22.662H292.85v9.211l12.756-5.841Z" fill="#4ebc88"/>
    <path id="Path_44" data-name="Path 44" d="M292.85,70.686h12.756V32.595L292.85,38.435Z" fill="#4ebc88"/>
    <path id="Path_45" data-name="Path 45" d="M334.379,22.662H326.65l-5.026,2.3-10.4,4.761V35.4h10.4V70.686h12.756V35.4h10.4V22.662Z" fill="#4ebc88"/>
  </g>
</svg>
